<svg width="26" height="26" viewBox="0 0 26 26" fill="none" xmlns="http://www.w3.org/2000/svg">
<g clip-path="url(#clip0)">
<path d="M9.41405 9.4198C9.75037 9.4198 10.0229 9.69238 10.0229 10.0287V21.5369C10.0229 21.873 9.75037 22.1458 9.41405 22.1458C9.07773 22.1458 8.80515 21.873 8.80515 21.5369V10.0287C8.80515 9.69238 9.07773 9.4198 9.41405 9.4198Z" fill="white"/>
<path d="M16.5985 9.4198C16.9348 9.4198 17.2074 9.69238 17.2074 10.0287V21.5369C17.2074 21.873 16.9348 22.1458 16.5985 22.1458C16.2622 22.1458 15.9896 21.873 15.9896 21.5369V10.0287C15.9896 9.69238 16.2622 9.4198 16.5985 9.4198Z" fill="white"/>
<path d="M21.8359 7.74032V22.7423C21.8359 23.629 21.5107 24.4617 20.9427 25.0592C20.3774 25.6583 19.5906 25.9984 18.7671 25.9999H7.2466C6.42293 25.9984 5.63612 25.6583 5.07098 25.0592C4.503 24.4617 4.17785 23.629 4.17785 22.7423V7.74032C3.04878 7.44063 2.31715 6.34985 2.46819 5.19128C2.61946 4.03295 3.6063 3.16646 4.77462 3.16622H7.89213V2.4051C7.88856 1.76505 8.14163 1.15044 8.59474 0.698287C9.04784 0.246371 9.6634 -0.00527478 10.3035 -4.20662e-05H15.7103C16.3503 -0.00527478 16.9659 0.246371 17.419 0.698287C17.8721 1.15044 18.1252 1.76505 18.1216 2.4051V3.16622H21.2391C22.4074 3.16646 23.3943 4.03295 23.5455 5.19128C23.6966 6.34985 22.965 7.44063 21.8359 7.74032ZM7.2466 24.7821H18.7671C19.8082 24.7821 20.6181 23.8878 20.6181 22.7423V7.79384H5.39565V22.7423C5.39565 23.8878 6.20553 24.7821 7.2466 24.7821ZM16.9038 2.4051C16.9079 2.08805 16.7832 1.78288 16.5582 1.55907C16.3334 1.33525 16.0276 1.21228 15.7103 1.21775H10.3035C9.98617 1.21228 9.68029 1.33525 9.45552 1.55907C9.23051 1.78265 9.10588 2.08805 9.10992 2.4051V3.16622H16.9038V2.4051ZM21.2391 4.38402H4.77462C4.16929 4.38402 3.67861 4.8747 3.67861 5.48003C3.67861 6.08536 4.16929 6.57605 4.77462 6.57605H21.2391C21.8444 6.57605 22.3351 6.08536 22.3351 5.48003C22.3351 4.8747 21.8444 4.38402 21.2391 4.38402Z" fill="white"/>
<path d="M13.0066 9.4198C13.343 9.4198 13.6155 9.69238 13.6155 10.0287V21.5369C13.6155 21.873 13.343 22.1458 13.0066 22.1458C12.6703 22.1458 12.3977 21.873 12.3977 21.5369V10.0287C12.3977 9.69238 12.6703 9.4198 13.0066 9.4198Z" fill="white"/>
</g>
<defs>
<clipPath id="clip0">
<rect width="26" height="26" fill="white" transform="matrix(-1 0 0 1 26 0)"/>
</clipPath>
</defs>
</svg>
