<svg width="115" height="121" viewBox="0 0 115 121" fill="none" xmlns="http://www.w3.org/2000/svg">
<path d="M113.283 27.8669L101.067 22.882C100.321 18.8936 97.3241 15.7002 93.4676 14.7091L92.8069 7.00941C92.7124 5.91108 91.9838 4.97357 90.9508 4.62174C89.9175 4.2699 88.7764 4.56998 88.0444 5.38702L84.8484 8.95221L82.8875 2.0107C82.561 0.854759 81.5347 0.0432584 80.3467 0.00135854C79.1593 -0.03592 78.0794 0.697019 77.674 1.8277L60.7566 49.0297C48.5871 52.2258 37.9604 60.1017 31.4333 70.8188C25.4549 80.6351 23.5979 91.8815 26.2045 102.486C27.7279 108.684 30.6203 112.768 33.5791 115.446H31.2521C31.2301 115.446 31.2082 115.446 31.1863 115.446C20.1788 115.718 9.97804 109.389 5.2147 99.3313C4.56068 97.9502 2.92335 97.3673 1.55774 98.0284C0.192133 98.6902 -0.384512 100.346 0.269811 101.727C5.8474 113.504 17.6569 121 30.5143 121C30.7708 121 82.8568 121 82.8568 121C84.371 121 85.5984 119.759 85.5984 118.227C85.5984 110.764 79.7122 107.362 74.5172 106.113C76.9462 101.323 77.1561 97.1113 76.8807 94.3557L77.5972 94.259L94.0293 119.742C94.5356 120.526 95.3992 121 96.3258 121H106.304C107.302 121 108.222 120.451 108.704 119.567C109.186 118.683 109.155 117.603 108.623 116.749C108.517 116.579 98.2154 100.036 92.6774 90.7745V44.1841C93.4926 44.279 94.4079 44.3267 95.2164 44.3267C103.17 44.3267 110.65 39.7886 114.677 31.742C114.68 31.7355 114.784 31.5174 114.8 31.4755C115.367 30.0555 114.688 28.4396 113.283 27.8669Z" fill="url(#paint0_linear)"/>
<defs>
<linearGradient id="paint0_linear" x1="28.3077" y1="40.3334" x2="112.416" y2="42.0431" gradientUnits="userSpaceOnUse">
<stop stop-color="#9AB0FF"/>
<stop offset="1" stop-color="#98A2FF"/>
</linearGradient>
</defs>
</svg>
