<svg width="18" height="22" viewBox="0 0 18 22" fill="none" xmlns="http://www.w3.org/2000/svg">
<path d="M9 0C4.45068 0 0.75 3.70111 0.75 8.25C0.75 14.3364 8.36174 21.5703 8.68581 21.8756C8.77441 21.9584 8.88721 22 9 22C9.11279 22 9.22558 21.9584 9.31423 21.8756C9.63826 21.5703 17.25 14.3364 17.25 8.25C17.25 3.70111 13.5493 0 9 0ZM9 12.8333C6.47288 12.8333 4.41665 10.7771 4.41665 8.25C4.41665 5.72288 6.47292 3.66665 9 3.66665C11.5271 3.66665 13.5833 5.72292 13.5833 8.25C13.5833 10.7771 11.5271 12.8333 9 12.8333Z" fill="black"/>
</svg>
