<svg width="27" height="24" viewBox="0 0 27 24" fill="none" xmlns="http://www.w3.org/2000/svg">
<path d="M13.0614 4.42902L13.5 5.23061L13.9386 4.42903C14.3647 3.65042 15.0804 2.59624 16.1416 1.77547C17.2401 0.925947 18.4763 0.5 19.8281 0.5C23.6031 0.5 26.5 3.58137 26.5 7.77906C26.5 10.0208 25.6069 11.9289 23.9639 13.9115C22.3082 15.9094 19.9293 17.9388 17.0065 20.4296L17.3308 20.8101L17.0065 20.4296C16.0173 21.2726 14.8941 22.2298 13.7262 23.2511L13.7261 23.2513C13.6639 23.3057 13.5838 23.3359 13.5 23.3359C13.4162 23.3359 13.3361 23.3057 13.274 23.2513L13.2737 23.251C12.1066 22.2304 10.9839 21.2736 9.99562 20.4314L9.99417 20.4301L9.66985 20.8107L9.99415 20.4301C7.071 17.9391 4.69199 15.9095 3.03619 13.9116C1.39306 11.9289 0.5 10.0208 0.5 7.77906C0.5 3.58137 3.39689 0.5 7.17188 0.5C8.52373 0.5 9.7599 0.925947 10.8583 1.77547C11.9196 2.59624 12.6353 3.65037 13.0614 4.42902Z" stroke="#AFAFAF"/>
</svg>
