<svg width="25" height="23" viewBox="0 0 25 23" fill="none" xmlns="http://www.w3.org/2000/svg">
<path d="M25 7.25195C25 5.62061 25 4.47935 25 4.37109C25 3.15952 24.0143 2.17383 22.8027 2.17383H22.5098V4.85938C22.5098 5.26387 22.1818 5.5918 21.7773 5.5918C21.3729 5.5918 21.0449 5.26387 21.0449 4.85938C21.0449 4.03716 21.0449 1.77188 21.0449 0.953125C21.0449 0.548633 20.717 0.220703 20.3125 0.220703C19.908 0.220703 19.5801 0.548633 19.5801 0.953125V2.17383H14.6973V4.85938C14.6973 5.26387 14.3693 5.5918 13.9648 5.5918C13.5604 5.5918 13.2324 5.26387 13.2324 4.85938C13.2324 4.03716 13.2324 1.77188 13.2324 0.953125C13.2324 0.548633 12.9045 0.220703 12.5 0.220703C12.0955 0.220703 11.7676 0.548633 11.7676 0.953125V2.17383H6.88477V4.85938C6.88477 5.26387 6.55684 5.5918 6.15234 5.5918C5.74785 5.5918 5.41992 5.26387 5.41992 4.85938C5.41992 4.03716 5.41992 1.77188 5.41992 0.953125C5.41992 0.548633 5.09199 0.220703 4.6875 0.220703C4.28301 0.220703 3.95508 0.548633 3.95508 0.953125V2.17383H2.19727C0.985693 2.17383 0 3.15952 0 4.37109V7.25195H25Z" fill="url(#paint0_linear)"/>
<path d="M0 8.7168V20.582C0 21.7936 0.985693 22.7793 2.19727 22.7793H22.8027C24.0143 22.7793 25 21.7936 25 20.582C25 20.2683 25 13.4135 25 8.7168C24.5442 8.7168 0.252148 8.7168 0 8.7168ZM7.03125 18.873H5.46875C5.06426 18.873 4.73633 18.5451 4.73633 18.1406C4.73633 17.7361 5.06426 17.4082 5.46875 17.4082H7.03125C7.43574 17.4082 7.76367 17.7361 7.76367 18.1406C7.76367 18.5451 7.43574 18.873 7.03125 18.873ZM7.03125 15.748H5.46875C5.06426 15.748 4.73633 15.4201 4.73633 15.0156C4.73633 14.6111 5.06426 14.2832 5.46875 14.2832H7.03125C7.43574 14.2832 7.76367 14.6111 7.76367 15.0156C7.76367 15.4201 7.43574 15.748 7.03125 15.748ZM7.03125 12.623H5.46875C5.06426 12.623 4.73633 12.2951 4.73633 11.8906C4.73633 11.4861 5.06426 11.1582 5.46875 11.1582H7.03125C7.43574 11.1582 7.76367 11.4861 7.76367 11.8906C7.76367 12.2951 7.43574 12.623 7.03125 12.623ZM13.2812 18.873H11.7188C11.3143 18.873 10.9863 18.5451 10.9863 18.1406C10.9863 17.7361 11.3143 17.4082 11.7188 17.4082H13.2812C13.6857 17.4082 14.0137 17.7361 14.0137 18.1406C14.0137 18.5451 13.6857 18.873 13.2812 18.873ZM13.2812 15.748H11.7188C11.3143 15.748 10.9863 15.4201 10.9863 15.0156C10.9863 14.6111 11.3143 14.2832 11.7188 14.2832H13.2812C13.6857 14.2832 14.0137 14.6111 14.0137 15.0156C14.0137 15.4201 13.6857 15.748 13.2812 15.748ZM13.2812 12.623H11.7188C11.3143 12.623 10.9863 12.2951 10.9863 11.8906C10.9863 11.4861 11.3143 11.1582 11.7188 11.1582H13.2812C13.6857 11.1582 14.0137 11.4861 14.0137 11.8906C14.0137 12.2951 13.6857 12.623 13.2812 12.623ZM19.5312 18.873H17.9688C17.5643 18.873 17.2363 18.5451 17.2363 18.1406C17.2363 17.7361 17.5643 17.4082 17.9688 17.4082H19.5312C19.9357 17.4082 20.2637 17.7361 20.2637 18.1406C20.2637 18.5451 19.9357 18.873 19.5312 18.873ZM19.5312 15.748H17.9688C17.5643 15.748 17.2363 15.4201 17.2363 15.0156C17.2363 14.6111 17.5643 14.2832 17.9688 14.2832H19.5312C19.9357 14.2832 20.2637 14.6111 20.2637 15.0156C20.2637 15.4201 19.9357 15.748 19.5312 15.748ZM19.5312 12.623H17.9688C17.5643 12.623 17.2363 12.2951 17.2363 11.8906C17.2363 11.4861 17.5643 11.1582 17.9688 11.1582H19.5312C19.9357 11.1582 20.2637 11.4861 20.2637 11.8906C20.2637 12.2951 19.9357 12.623 19.5312 12.623Z" fill="url(#paint1_linear)"/>
<defs>
<linearGradient id="paint0_linear" x1="6.15385" y1="2.56445" x2="24.3405" y2="3.94755" gradientUnits="userSpaceOnUse">
<stop stop-color="#9AB0FF"/>
<stop offset="1" stop-color="#98A2FF"/>
</linearGradient>
<linearGradient id="paint1_linear" x1="6.15385" y1="13.4043" x2="24.4193" y2="14.0988" gradientUnits="userSpaceOnUse">
<stop stop-color="#9AB0FF"/>
<stop offset="1" stop-color="#98A2FF"/>
</linearGradient>
</defs>
</svg>
