<svg width="13" height="17" viewBox="0 0 13 17" fill="none" xmlns="http://www.w3.org/2000/svg">
<path d="M6.5 0C2.91569 0 0 2.85995 0 6.375C0 11.0781 5.99713 16.668 6.25246 16.9038C6.32227 16.9678 6.41113 17 6.5 17C6.58887 17 6.67773 16.9678 6.74758 16.9038C7.00287 16.668 13 11.0781 13 6.375C13 2.85995 10.0843 0 6.5 0ZM6.5 9.91668C4.50893 9.91668 2.88888 8.32778 2.88888 6.375C2.88888 4.42222 4.50897 2.83332 6.5 2.83332C8.49103 2.83332 10.1111 4.42226 10.1111 6.375C10.1111 8.32774 8.49107 9.91668 6.5 9.91668Z" fill="url(#paint0_linear)"/>
<defs>
<linearGradient id="paint0_linear" x1="3.2" y1="5.66667" x2="12.7092" y2="5.82221" gradientUnits="userSpaceOnUse">
<stop stop-color="#9AB0FF"/>
<stop offset="1" stop-color="#98A2FF"/>
</linearGradient>
</defs>
</svg>
