<svg width="27" height="24" viewBox="0 0 27 24" fill="none" xmlns="http://www.w3.org/2000/svg">
<path d="M19.8281 0C18.363 0 17.0198 0.464273 15.8358 1.37995C14.7007 2.25782 13.9449 3.37595 13.5 4.18901C13.0551 3.3759 12.2993 2.25782 11.1642 1.37995C9.98024 0.464273 8.63699 0 7.17188 0C3.08327 0 0 3.34426 0 7.77906C0 12.5702 3.8466 15.8482 9.66985 20.8107C10.6587 21.6534 11.7796 22.6087 12.9446 23.6274C13.0982 23.7619 13.2954 23.8359 13.5 23.8359C13.7046 23.8359 13.9018 23.7619 14.0554 23.6275C15.2205 22.6085 16.3413 21.6534 17.3308 20.8101C23.1534 15.8482 27 12.5702 27 7.77906C27 3.34426 23.9167 0 19.8281 0Z" fill="url(#paint0_linear)"/>
<defs>
<linearGradient id="paint0_linear" x1="6.64615" y1="7.94532" x2="26.3898" y2="8.42367" gradientUnits="userSpaceOnUse">
<stop stop-color="#9AB0FF"/>
<stop offset="1" stop-color="#98A2FF"/>
</linearGradient>
</defs>
</svg>
