<svg width="46" height="41" viewBox="0 0 46 41" fill="none" xmlns="http://www.w3.org/2000/svg">
<g clip-path="url(#clip0)">
<path d="M0.0370508 31.0202C8.49398 24.6793 7.39705 13.3304 7.04321 12.862C6.86628 4.6116 12.8109 4.53954 12.8109 4.53954C7.68013 6.12478 8.52936 11.8893 10.4047 13.0782C13.9078 14.5554 17.1986 15.4921 22.3647 13.9069C32.5201 10.8084 33.2632 0 33.2632 0C43.0648 3.35062 46.0017 7.71002 46.0017 7.71002C44.3386 11.4209 42.074 13.5826 41.8263 13.8348C40.7647 10.8084 35.2094 9.4754 35.2094 9.4754C26.3278 28.6784 27.6017 33.7223 28.9109 38.2258C29.0171 38.1898 29.1232 38.1898 29.2294 38.1898C29.9724 38.1898 30.574 38.8023 30.574 39.5589C30.574 40.3155 29.9724 40.9279 29.2294 40.9279H29.194C27.7078 41.1801 26.7878 40.0272 26.7878 40.0272C23.1786 32.7135 24.3463 26.8049 24.3463 26.8049C17.5171 27.8137 12.634 23.1301 12.634 23.1301C10.0509 30.2996 3.71705 32.4253 3.71705 32.4253C3.71705 32.4253 3.32782 34.6951 4.17705 38.2258C4.24782 38.2258 4.31859 38.1898 4.38936 38.1898C5.13244 38.1898 5.73398 38.8023 5.73398 39.5589C5.73398 40.0993 5.41551 40.6037 4.95551 40.8199C4.95551 40.8199 4.95551 40.8199 4.92013 40.8199C4.88474 40.8199 4.84936 40.8559 4.81397 40.8559C4.77859 40.8559 4.77859 40.8559 4.74321 40.8919C3.39859 41.3243 2.33705 40.0633 2.33705 40.0633C-0.422949 34.6951 0.0370508 31.0202 0.0370508 31.0202Z" fill="url(#paint0_linear)"/>
</g>
<defs>
<linearGradient id="paint0_linear" x1="11.3297" y1="13.6607" x2="44.9625" y2="14.4681" gradientUnits="userSpaceOnUse">
<stop stop-color="#9AB0FF"/>
<stop offset="1" stop-color="#98A2FF"/>
</linearGradient>
<clipPath id="clip0">
<rect width="46" height="41" fill="white"/>
</clipPath>
</defs>
</svg>
