<svg width="18" height="18" viewBox="0 0 18 18" fill="none" xmlns="http://www.w3.org/2000/svg">
<path d="M14.9062 2.25H11.8125V1.6875C11.8125 0.755508 11.057 0 10.125 0H7.875C6.94301 0 6.1875 0.755508 6.1875 1.6875V2.25H3.09375C2.31711 2.25 1.6875 2.87961 1.6875 3.65625V4.78125C1.6875 5.09193 1.93932 5.34375 2.25 5.34375H15.75C16.0607 5.34375 16.3125 5.09193 16.3125 4.78125V3.65625C16.3125 2.87961 15.6829 2.25 14.9062 2.25ZM7.3125 1.6875C7.3125 1.37742 7.56492 1.125 7.875 1.125H10.125C10.4351 1.125 10.6875 1.37742 10.6875 1.6875V2.25H7.3125V1.6875Z" fill="#939393"/>
<path d="M2.75585 6.46875C2.65548 6.46875 2.5755 6.55263 2.58028 6.6529L3.04434 16.3927C3.08723 17.2941 3.82763 18 4.72974 18H13.272C14.1741 18 14.9145 17.2941 14.9574 16.3927L15.4215 6.6529C15.4262 6.55263 15.3463 6.46875 15.2459 6.46875H2.75585ZM11.2509 7.875C11.2509 7.56422 11.5026 7.3125 11.8134 7.3125C12.1242 7.3125 12.3759 7.56422 12.3759 7.875V15.1875C12.3759 15.4983 12.1242 15.75 11.8134 15.75C11.5026 15.75 11.2509 15.4983 11.2509 15.1875V7.875ZM8.43837 7.875C8.43837 7.56422 8.69009 7.3125 9.00087 7.3125C9.31165 7.3125 9.56337 7.56422 9.56337 7.875V15.1875C9.56337 15.4983 9.31165 15.75 9.00087 15.75C8.69009 15.75 8.43837 15.4983 8.43837 15.1875V7.875ZM5.62587 7.875C5.62587 7.56422 5.87759 7.3125 6.18837 7.3125C6.49915 7.3125 6.75087 7.56422 6.75087 7.875V15.1875C6.75087 15.4983 6.49915 15.75 6.18837 15.75C5.87759 15.75 5.62587 15.4983 5.62587 15.1875V7.875Z" fill="#939393"/>
</svg>
