<svg width="33" height="33" viewBox="0 0 33 33" fill="none" xmlns="http://www.w3.org/2000/svg">
<g clip-path="url(#clip0)">
<path d="M16.2648 15.8962C18.4486 15.8962 20.3397 15.1129 21.8848 13.5676C23.4299 12.0225 24.2132 10.1319 24.2132 7.94784C24.2132 5.7645 23.4299 3.87372 21.8845 2.32811C20.3392 0.783253 18.4484 0 16.2648 0C14.0807 0 12.1901 0.783253 10.645 2.32836C9.09991 3.87347 8.31641 5.76425 8.31641 7.94784C8.31641 10.1319 9.09991 12.0227 10.6453 13.5678C12.1906 15.1127 14.0814 15.8962 16.2648 15.8962Z" fill="#282828"/>
<path d="M30.1724 25.3753C30.1278 24.7323 30.0377 24.0309 29.905 23.2901C29.771 22.5439 29.5986 21.8384 29.3921 21.1937C29.1789 20.5272 28.8888 19.8691 28.5303 19.2384C28.1582 18.5838 27.7211 18.0138 27.2307 17.5448C26.7178 17.0541 26.0899 16.6596 25.3638 16.3718C24.6402 16.0855 23.8383 15.9405 22.9806 15.9405C22.6437 15.9405 22.3179 16.0787 21.6887 16.4884C21.3015 16.7409 20.8486 17.0329 20.343 17.356C19.9107 17.6314 19.3251 17.8894 18.6018 18.1231C17.8961 18.3514 17.1795 18.4673 16.4723 18.4673C15.7651 18.4673 15.0488 18.3514 14.3423 18.1231C13.6198 17.8897 13.0341 17.6316 12.6023 17.3562C12.1016 17.0362 11.6484 16.7442 11.2554 16.4881C10.627 16.0785 10.3009 15.9403 9.96405 15.9403C9.10602 15.9403 8.30438 16.0855 7.58105 16.372C6.85545 16.6593 6.22728 17.0538 5.71392 17.545C5.22372 18.0143 4.7864 18.5841 4.41479 19.2384C4.05652 19.8691 3.76648 20.527 3.55298 21.1939C3.34678 21.8387 3.17432 22.5439 3.04037 23.2901C2.90769 24.0298 2.81756 24.7315 2.773 25.3761C2.72919 26.0075 2.70703 26.6628 2.70703 27.3247C2.70703 29.0473 3.25463 30.4419 4.33447 31.4704C5.40097 32.4853 6.81214 33.0001 8.52821 33.0001H24.4179C26.134 33.0001 27.5446 32.4855 28.6114 31.4704C29.6915 30.4427 30.2391 29.0479 30.2391 27.3245C30.2388 26.6596 30.2164 26.0037 30.1724 25.3753Z" fill="#282828"/>
</g>
<defs>
<clipPath id="clip0">
<rect width="33" height="33" fill="white"/>
</clipPath>
</defs>
</svg>
